<?xml version="1.0" standalone="no"?>
<!DOCTYPE svg PUBLIC "-//W3C//DTD SVG 20010904//EN"
 "http://www.w3.org/TR/2001/REC-SVG-20010904/DTD/svg10.dtd">
<svg version="1.0" xmlns="http://www.w3.org/2000/svg"
 width="700.000000pt" height="700.000000pt" viewBox="0 0 700.000000 700.000000"
 preserveAspectRatio="xMidYMid meet">
<metadata>
Created by potrace 1.11, written by Peter Selinger 2001-2013
</metadata>
<g transform="translate(0.000000,700.000000) scale(0.100000,-0.100000)"
fill="#000000" stroke="none">
<path d="M548 6857 l-147 -142 562 -595 562 -595 -569 -5 -569 -5 594 -665
c326 -366 873 -979 1216 -1363 l623 -698 0 -1189 0 -1190 -570 0 -570 0 0
-205 0 -205 1365 0 1365 0 0 205 0 205 -590 0 -590 0 0 1193 1 1192 589 660
c324 363 595 664 602 668 8 5 42 -8 92 -37 337 -193 755 -234 1132 -111 423
138 775 494 904 915 48 157 63 259 63 425 0 384 -141 725 -412 995 -247 246
-537 380 -887 410 -593 51 -1166 -295 -1404 -847 -36 -85 -81 -232 -95 -315
l-6 -38 -858 0 -859 0 -383 407 c-772 820 -1011 1073 -1012 1073 -1 0 -68 -65
-149 -143z m4181 -1766 c-8 -11 -131 -150 -274 -310 l-260 -291 -1172 0 -1171
0 -243 273 c-133 149 -258 289 -278 310 l-35 37 1723 0 c1699 0 1723 0 1710
-19z"/>
</g>
</svg>
