<?xml version="1.0" standalone="no"?>
<!DOCTYPE svg PUBLIC "-//W3C//DTD SVG 20010904//EN"
 "http://www.w3.org/TR/2001/REC-SVG-20010904/DTD/svg10.dtd">
<svg version="1.0" xmlns="http://www.w3.org/2000/svg"
 width="700.000000pt" height="700.000000pt" viewBox="0 0 700.000000 700.000000"
 preserveAspectRatio="xMidYMid meet">
<metadata>
Created by potrace 1.11, written by Peter Selinger 2001-2013
</metadata>
<g transform="translate(0.000000,700.000000) scale(0.100000,-0.100000)"
fill="#000000" stroke="none">
<path d="M599 6907 c-53 -50 -120 -114 -148 -141 l-52 -48 60 -62 c33 -33 74
-77 91 -96 32 -34 190 -203 307 -326 55 -58 268 -285 343 -365 19 -20 96 -101
170 -179 74 -78 139 -149 143 -156 7 -12 -79 -14 -558 -14 -311 0 -565 -3
-565 -6 0 -3 6 -11 12 -18 16 -16 129 -142 158 -176 12 -14 40 -45 63 -70 50
-53 174 -193 208 -234 13 -16 34 -38 45 -50 12 -12 61 -66 110 -121 49 -55 91
-102 94 -105 3 -3 39 -43 80 -90 41 -47 77 -87 80 -90 3 -3 39 -43 80 -90 41
-47 79 -90 85 -96 5 -6 42 -46 80 -89 39 -43 75 -83 80 -89 6 -6 60 -67 120
-136 61 -68 119 -134 130 -146 11 -11 49 -54 85 -94 36 -40 70 -78 75 -84 94
-104 222 -248 252 -282 16 -19 143 -161 168 -188 12 -13 155 -174 205 -230 19
-22 42 -47 50 -56 8 -8 49 -54 92 -102 l76 -86 1 -1191 0 -1191 -572 -2 -572
-3 0 -200 0 -200 1368 -3 1367 -2 0 205 0 205 -590 0 -590 0 0 1193 0 1192 33
35 c18 19 61 68 97 109 36 41 74 84 85 95 11 12 52 57 90 101 74 83 148 166
201 225 17 19 94 105 169 190 76 85 170 190 209 233 38 43 77 87 86 96 157
178 224 251 231 251 4 0 36 -16 70 -36 152 -89 334 -152 529 -181 58 -8 261
-9 320 -1 30 4 78 10 105 14 28 3 53 8 58 11 4 2 20 7 35 9 53 10 202 64 274
100 223 111 445 309 572 509 115 182 191 396 213 600 9 79 9 245 0 320 -35
311 -170 595 -387 816 -130 132 -223 203 -367 277 -142 73 -331 132 -481 148
-82 10 -279 9 -347 0 -98 -14 -257 -56 -342 -91 -94 -40 -224 -106 -243 -125
-3 -3 -32 -23 -65 -45 -83 -55 -250 -224 -317 -320 -116 -167 -207 -374 -234
-535 -3 -14 -7 -37 -10 -52 l-6 -28 -857 0 -857 0 -130 137 c-71 75 -140 148
-154 163 -37 39 -270 287 -325 345 -25 28 -106 113 -178 190 -73 76 -145 153
-161 170 -168 179 -286 304 -361 382 l-90 93 -96 -93z m4141 -1806 c0 -5 -3
-11 -7 -13 -5 -1 -26 -23 -47 -48 -42 -48 -123 -138 -282 -315 -54 -61 -123
-138 -151 -171 l-52 -59 -1177 0 -1176 0 -45 50 c-24 28 -59 66 -77 85 -17 19
-61 69 -96 110 -36 41 -70 79 -76 85 -6 5 -51 55 -99 110 -49 55 -104 117
-124 138 l-35 37 1722 0 c1037 0 1722 -4 1722 -9z"/>
</g>
</svg>
